# xmcd
# 
# Track frame offsets:
#     183
#     17260
#     39890
#     57975
#     87168
#     108833
#     149463
# 
# Disc length: 2383
# 
# Revision: 19
# Processed by: cddbd v1.5.2PL0 Copyright (c) Steve Scherf et al.
# Submitted via: fre:ac v1.0.17
# 
DISCID=4b094d07
DTITLE=Prince - Sign 'O' the Times [CD 2)
DYEAR=1987
DGENRE=Rock
TTITLE0=U Got the Look
TTITLE1=If I Was Your Girlfriend
TTITLE2=Strange Relationship
TTITLE3=I Could Never Take the Place of Your Man
TTITLE4=The Cross
TTITLE5=It's Gonna Be a Beautiful Night
TTITLE6=Adore
EXTD=PRINCE "SIGN 'O' THE TIMES" (2 Disc-Set, 1987]\n\nWarner Bros. - Paisley Park\n7599-25577-2
EXTT0=
EXTT1=
EXTT2=
EXTT3=
EXTT4=
EXTT5=
EXTT6=
PLAYORDER=
